HIERARCHY
ROOT Hips
{
	OFFSET 0.00000 0.00000 0.00000
	CHANNELS 6 Xposition Yposition Zposition Zrotation Yrotation Xrotation 
	JOINT RightUpLegDummy
	{
		OFFSET 0 0 0
		CHANNELS 3 Zrotation Yrotation Xrotation
		JOINT RightUpLeg
		{
			OFFSET -3.52197 -3.41223 0.04002
			CHANNELS 3 Zrotation Yrotation Xrotation
			JOINT RightLeg
			{
				OFFSET 0.00006 -17.42390 1.60435
				CHANNELS 3 Zrotation Yrotation Xrotation
				JOINT RightFoot
				{
					OFFSET 0.06153 -16.50078 -1.63901
					CHANNELS 3 Zrotation Yrotation Xrotation
					JOINT RightToes
					{
						OFFSET 0.00298 -1.73825 3.34613
						CHANNELS 3 Zrotation Yrotation Xrotation
						End Site
						{
							OFFSET 0.00480 -0.05416 3.85043
						}
					}
				}
			}
		}
	}
	JOINT SpineDummy
	{
		OFFSET 0 0 0
		CHANNELS 3 Zrotation Yrotation Xrotation
		JOINT Spine
		{
			OFFSET 0.00000 4.68130 0.00000
			CHANNELS 3 Zrotation Yrotation Xrotation
			JOINT Spine1
			{
				OFFSET -0.00000 10.10138 0.05002
				CHANNELS 3 Zrotation Yrotation Xrotation
				JOINT HEadDummy
				{
					OFFSET 0 0 0
					CHANNELS 3 Zrotation Yrotation Xrotation
					JOINT Head
					{
						OFFSET -0.00000 3.43865 0.00438
						CHANNELS 3 Zrotation Yrotation Xrotation
						End Site
						{
							OFFSET -0.11417 5.02924 0.98962
						}
					}
				}
				JOINT LeftShoulder1Dummy
				{
					OFFSET 0 0 0
					CHANNELS 3 Zrotation Yrotation Xrotation
					JOINT LeftShoulder1
					{
						OFFSET 3.53937 -0.14262 -0.08662
						CHANNELS 3 Zrotation Yrotation Xrotation
						JOINT LeftArm
						{
							OFFSET 4.04833 -0.00133 0.12681
							CHANNELS 3 Zrotation Yrotation Xrotation
							JOINT LeftForeArm
							{
								OFFSET 10.33880 -0.01036 -0.55515
								CHANNELS 3 Zrotation Yrotation Xrotation
								JOINT LeftHand
								{
									OFFSET 8.69677 0.07543 0.40060
									CHANNELS 3 Zrotation Yrotation Xrotation
									End Site
									{
										OFFSET 5.28377 -0.21905 0.59205
									}
								}
							}
						}
					}
				}
				JOINT RightShoulderDummy
				{
					OFFSET 0 0 0
					CHANNELS 3 Zrotation Yrotation Xrotation
					JOINT RightShoulder
					{
						OFFSET -3.53937 -0.14262 -0.08660
						CHANNELS 3 Zrotation Yrotation Xrotation
						JOINT RightArm
						{
							OFFSET -4.04833 -0.00133 0.12683
							CHANNELS 3 Zrotation Yrotation Xrotation
							JOINT RightForeArm
							{
								OFFSET -10.37987 -0.01039 -0.55511
								CHANNELS 3 Zrotation Yrotation Xrotation
								JOINT RightHand
								{
									OFFSET -8.67398 0.07538 0.40058
									CHANNELS 3 Zrotation Yrotation Xrotation
									End Site
									{
										OFFSET -5.24810 -0.21916 0.59204
									}
								}
							}
						}
					}
				}
			}
		}
	}
	JOINT LeftUpLegDummy
	{
		OFFSET 0 0 0
		CHANNELS 3 Zrotation Yrotation Xrotation
		JOINT LeftUpLeg
		{
			OFFSET 3.52197 -3.41223 0.04002
			CHANNELS 3 Zrotation Yrotation Xrotation
			JOINT LeftLeg
			{
				OFFSET -0.00012 -17.42399 1.60337
				CHANNELS 3 Zrotation Yrotation Xrotation
				JOINT LeftFoot
				{
					OFFSET -0.09972 -16.50070 -1.63802
					CHANNELS 3 Zrotation Yrotation Xrotation
					JOINT LeftToes
					{
						OFFSET -0.01575 -1.73823 3.34611
						CHANNELS 3 Zrotation Yrotation Xrotation
						End Site
						{
							OFFSET 0.03150 -0.01868 3.85031
						}
					}
				}
			}
		}
	}
}
MOTION
Frames: 8
Frame Time: 0.033333
-5.7338 40.0422 80.5533 -177.9600 2.3698 179.4640 0.0000 0.0000 0.0000 3.8992 -0.1153 0.4360 -1.0275 -2.8721 3.4566 -2.9163 0.1765 -3.6468 0.0000 -0.0000 -0.0000 0.0000 0.0000 0.0000 -0.2772 -0.4977 -2.5253 5.0731 -1.6290 3.7942 -0.0000 0.0000 -0.0000 1.5817 -0.3106 -1.4258 -0.0000 0.0000 -0.0000 -34.3331 -2.6632 2.4899 -45.0894 -16.5695 -17.1805 -10.2088 4.9934 52.6425 16.4286 -3.6962 -1.2602 -0.0000 0.0000 -0.0000 34.3981 5.0896 3.4726 40.3762 6.4477 -15.8873 10.9584 -1.1783 25.2807 -12.3436 1.1616 -0.6867 0.0000 0.0000 0.0000 2.0384 2.1700 0.1441 0.6171 3.1500 6.0657 2.2354 -0.0743 -5.9767 0.0000 0.0000 -0.0000
-5.7338 40.0422 80.5561 -177.9740 2.3820 179.4290 0.0000 0.0000 0.0000 3.8751 -0.1419 0.4631 -1.0088 -2.8266 3.4568 -2.9337 0.1776 -3.6433 0.0000 -0.0000 -0.0000 0.0000 0.0000 0.0000 -0.2690 -0.4714 -2.5026 5.0395 -1.5953 3.7993 -0.0000 0.0000 -0.0000 1.5654 -0.3781 -1.4905 -0.0000 0.0000 -0.0000 -34.3331 -2.6834 2.4976 -45.0748 -16.4901 -16.9652 -10.3330 5.0004 52.3731 16.3369 -3.5826 -1.2377 -0.0000 0.0000 -0.0000 34.4202 5.0915 3.4753 40.3300 6.4226 -15.9142 10.9398 -1.1645 25.4795 -11.6721 1.6734 -0.6959 0.0000 0.0000 0.0000 2.0185 2.1594 0.1914 0.6159 3.1684 6.0426 2.2699 -0.0765 -5.9506 0.0000 0.0000 -0.0000
-5.7338 40.0422 80.5621 -177.9730 2.3998 179.3940 0.0000 0.0000 0.0000 3.8736 -0.1513 0.4871 -0.9996 -2.8002 3.4570 -2.9260 0.1771 -3.6355 0.0000 -0.0000 -0.0000 0.0000 0.0000 0.0000 -0.2568 -0.4247 -2.4395 5.0185 -1.5397 3.7249 -0.0000 0.0000 -0.0000 1.5569 -0.5176 -1.5269 -0.0000 0.0000 -0.0000 -34.3367 -2.7148 2.5104 -45.0249 -16.3348 -16.6131 -10.5417 5.0104 51.9730 16.2928 -3.4048 -1.2104 -0.0000 0.0000 -0.0000 34.4897 5.0992 3.4847 40.1946 6.3296 -15.9306 10.9225 -1.1324 25.8065 -10.7405 2.3652 -0.6983 0.0000 0.0000 0.0000 2.0225 2.1671 0.2218 0.6153 3.1791 6.0444 2.2995 -0.0784 -5.9388 0.0000 0.0000 -0.0000
-5.7312 40.0422 80.5690 -177.9600 2.4338 179.3690 0.0000 0.0000 0.0000 3.8925 -0.1413 0.5015 -1.0009 -2.7862 3.4604 -2.9050 0.1757 -3.6291 0.0000 -0.0000 -0.0000 0.0000 0.0000 0.0000 -0.2703 -0.3866 -2.3635 5.0519 -1.5018 3.6174 -0.0000 0.0000 -0.0000 1.5288 -0.6533 -1.5060 -0.0000 0.0000 -0.0000 -34.3567 -2.7229 2.5150 -44.9647 -16.2333 -16.3802 -10.6865 5.0156 51.7491 16.3307 -3.2574 -1.1936 -0.0000 0.0000 -0.0000 34.5459 5.1081 3.4932 40.0667 6.2575 -15.9114 10.9252 -1.1144 25.9871 -10.3852 2.6167 -0.6949 0.0000 0.0000 0.0000 2.0478 2.1925 0.2274 0.6146 3.1906 6.0754 2.3058 -0.0788 -5.9513 0.0000 0.0000 -0.0000
-5.7281 40.0422 80.5745 -177.9800 2.4967 179.3240 0.0000 0.0000 0.0000 3.8721 -0.1607 0.5293 -0.9856 -2.7104 3.4786 -2.9147 0.1763 -3.6298 0.0000 -0.0000 -0.0000 0.0000 0.0000 0.0000 -0.2681 -0.3840 -2.3501 5.0021 -1.4897 3.6489 -0.0000 0.0000 -0.0000 1.5416 -0.6771 -1.5033 -0.0000 0.0000 -0.0000 -34.2730 -2.6932 2.4978 -44.9954 -16.2588 -16.3289 -10.7103 5.0153 51.7510 16.3292 -3.1953 -1.1851 -0.0000 0.0000 -0.0000 34.5896 5.1204 3.5020 40.0254 6.3241 -15.8707 10.9396 -1.1307 25.9614 -10.5143 2.4947 -0.6934 0.0000 0.0000 0.0000 2.0329 2.1918 0.2863 0.6210 3.2501 6.0530 2.2920 -0.0779 -5.9441 0.0000 0.0000 -0.0000
-5.7269 40.0422 80.5789 -178.0390 2.5685 179.2520 0.0000 0.0000 0.0000 3.8002 -0.2193 0.5736 -0.9531 -2.5778 3.5196 -2.9476 0.1785 -3.6403 0.0000 -0.0000 -0.0000 0.0000 0.0000 0.0000 -0.2369 -0.4029 -2.3883 4.8265 -1.4791 3.7929 -0.0000 0.0000 -0.0000 1.6538 -0.5638 -1.5414 -0.0000 0.0000 -0.0000 -34.0778 -2.6612 2.4727 -45.1045 -16.3340 -16.3571 -10.6697 5.0135 51.8241 16.2358 -3.2054 -1.1795 -0.0000 0.0000 -0.0000 34.6640 5.1398 3.5164 40.0261 6.4636 -15.8240 10.9563 -1.1556 25.8748 -10.5899 2.4091 -0.6936 0.0000 0.0000 0.0000 1.9640 2.1530 0.4161 0.6464 3.3522 5.9511 2.2597 -0.0758 -5.9035 0.0000 0.0000 -0.0000
-5.7255 40.0422 80.5840 -178.0930 2.6175 179.1760 0.0000 0.0000 0.0000 3.7374 -0.2685 0.6216 -0.9331 -2.4776 3.5636 -2.9623 0.1795 -3.6578 0.0000 -0.0000 -0.0000 0.0000 0.0000 0.0000 -0.2640 -0.3927 -2.3677 4.7379 -1.4473 3.8109 -0.0000 0.0000 -0.0000 1.7715 -0.4274 -1.5602 -0.0000 0.0000 -0.0000 -33.9753 -2.6828 2.4749 -45.1246 -16.3371 -16.4012 -10.6371 5.0127 51.8615 16.1174 -3.2385 -1.1749 -0.0000 0.0000 -0.0000 34.7388 5.1551 3.5292 39.9966 6.4938 -15.7930 10.9752 -1.1664 25.8240 -10.5382 2.4395 -0.6985 0.0000 0.0000 0.0000 1.9048 2.1232 0.5449 0.6602 3.4255 5.8527 2.2273 -0.0737 -5.8677 0.0000 0.0000 -0.0000
-5.7211 40.0422 80.5893 -178.1110 2.6399 179.1100 0.0000 0.0000 0.0000 3.7281 -0.2770 0.6756 -0.9380 -2.4528 3.5799 -2.9537 0.1790 -3.6730 0.0000 -0.0000 -0.0000 0.0000 0.0000 0.0000 -0.3841 -0.3410 -2.2676 4.8518 -1.4031 3.6521 -0.0000 0.0000 -0.0000 1.7831 -0.3995 -1.5496 -0.0000 0.0000 -0.0000 -34.0441 -2.7607 2.5104 -45.0084 -16.2720 -16.4962 -10.6071 5.0110 51.9294 16.0430 -3.3125 -1.1790 -0.0000 0.0000 -0.0000 34.7725 5.1574 3.5331 39.9417 6.3911 -15.7989 10.9917 -1.1725 25.7748 -10.6000 2.4119 -0.6978 0.0000 0.0000 0.0000 1.9019 2.1352 0.6284 0.6461 3.4331 5.8160 2.2168 -0.0731 -5.8567 0.0000 0.0000 -0.0000
